<?xml version="1.0" standalone="no"?>
<!DOCTYPE svg PUBLIC "-//W3C//DTD SVG 20010904//EN"
 "http://www.w3.org/TR/2001/REC-SVG-20010904/DTD/svg10.dtd">
<svg version="1.0" xmlns="http://www.w3.org/2000/svg"
 width="500.000000pt" height="500.000000pt" viewBox="0 0 500.000000 500.000000"
 preserveAspectRatio="xMidYMid meet">

<g transform="translate(0.000000,500.000000) scale(0.100000,-0.100000)"
fill="#000000" stroke="none">
<path d="M1570 3234 c0 -87 4 -133 10 -129 6 4 10 57 10 126 l0 119 910 0 910
0 0 -119 c0 -69 4 -122 10 -126 6 -4 10 42 10 129 l0 136 -930 0 -930 0 0
-136z"/>
<path d="M2182 3023 c-37 -30 -88 -211 -107 -378 -5 -46 -14 -71 -41 -108 -19
-27 -41 -46 -47 -44 -8 3 -12 31 -12 85 1 95 -13 95 -21 1 -7 -69 5 -109 31
-109 7 0 29 18 48 40 l34 40 6 -102 c7 -107 14 -148 27 -148 4 0 4 19 -1 43
-4 23 -8 90 -9 150 0 105 1 109 39 185 80 160 118 307 89 345 -13 18 -15 18
-36 0z m25 -60 c-6 -66 -34 -157 -77 -247 l-30 -61 6 55 c8 71 48 229 69 275
26 53 39 44 32 -22z"/>
<path d="M2437 2993 c-2 -5 -7 -21 -11 -37 -4 -17 -36 -57 -77 -96 -56 -55
-69 -73 -69 -99 0 -28 3 -31 28 -30 23 2 24 2 5 6 -39 7 -27 41 35 101 l57 56
3 -159 c3 -169 1 -175 -46 -175 -32 0 -19 -16 18 -23 l30 -6 0 -83 c0 -46 5
-90 10 -98 7 -10 10 14 10 79 0 72 3 92 13 88 7 -3 46 -14 87 -26 41 -11 90
-25 108 -30 17 -5 32 -6 32 -1 0 5 -26 16 -57 25 -104 29 -183 57 -183 63 0 4
24 19 53 34 181 95 305 280 236 354 -45 48 -143 52 -242 10 l-35 -14 5 34 c5
31 0 45 -10 27z m245 -55 c103 -39 -26 -243 -214 -339 l-38 -19 0 134 c0 178
4 194 49 213 73 31 142 34 203 11z"/>
<path d="M1818 2970 c-4 -14 -8 -44 -8 -67 0 -41 -2 -44 -52 -69 -81 -41 -168
-101 -225 -157 -77 -74 -71 -96 30 -117 57 -11 58 -12 41 -31 -16 -18 -16 -19
0 -19 9 0 15 4 11 9 -3 5 4 13 16 16 35 11 123 -54 145 -109 11 -25 22 -46 27
-46 4 0 7 56 7 125 l0 125 33 14 c58 24 80 29 73 17 -11 -17 10 -13 24 4 22
27 2 29 -62 7 -34 -12 -62 -20 -63 -19 0 1 2 47 5 102 l5 100 90 39 c50 22
107 40 127 40 21 1 38 5 38 10 0 17 -97 -1 -167 -32 -39 -18 -74 -32 -77 -32
-3 0 -6 26 -8 58 -2 43 -5 51 -10 32z m-18 -174 c0 -18 -3 -61 -6 -95 l-7 -61
-75 -40 -75 -39 -69 16 c-85 21 -87 35 -15 96 76 64 217 157 240 157 4 0 7
-15 7 -34z m-10 -257 l0 -82 -44 41 c-23 22 -54 43 -67 47 -21 7 -17 11 41 41
36 18 66 33 68 34 1 0 2 -37 2 -81z"/>
<path d="M1970 2720 c0 -5 5 -10 10 -10 6 0 10 5 10 10 0 6 -4 10 -10 10 -5 0
-10 -4 -10 -10z"/>
<path d="M3031 2703 c-13 -34 -124 -117 -145 -110 -6 2 -15 13 -21 25 -5 12
-12 22 -16 22 -3 0 -19 -24 -35 -52 l-29 -53 -3 43 c-2 28 3 53 13 68 8 13 11
24 6 24 -21 0 -48 -115 -32 -139 12 -19 28 -7 52 41 19 37 22 39 38 24 22 -20
41 -20 69 0 26 18 26 17 7 -29 -18 -43 -20 -113 -3 -123 17 -11 44 29 68 101
12 36 24 65 27 65 3 0 2 -50 -2 -111 -6 -105 -9 -115 -42 -167 -96 -149 -146
-332 -111 -407 23 -52 83 -17 116 70 23 57 42 170 48 283 l7 114 63 78 c72 88
84 99 84 73 0 -68 114 -49 179 30 21 27 5 20 -45 -18 -45 -35 -96 -46 -109
-25 -3 6 10 25 29 44 40 37 43 48 21 66 -14 11 -23 7 -61 -31 -25 -24 -69 -73
-97 -109 l-52 -64 -5 149 c-5 137 -6 147 -19 118z m-45 -131 c-14 -39 -29 -79
-35 -89 -17 -29 -14 36 4 88 14 40 44 83 52 76 1 -2 -8 -36 -21 -75z m274 43
c0 -21 -43 -62 -48 -47 -5 15 24 62 38 62 6 0 10 -7 10 -15z m-244 -357 c-13
-173 -59 -325 -102 -342 -46 -18 -45 124 4 247 27 71 90 187 100 187 3 0 1
-42 -2 -92z"/>
<path d="M2658 2666 c-35 -73 -28 -171 12 -171 23 0 60 64 60 106 0 29 -6 42
-27 58 -24 17 -26 22 -13 31 13 8 13 10 -1 10 -8 0 -23 -15 -31 -34z m40 -28
c17 -17 15 -54 -5 -95 -15 -33 -17 -34 -30 -17 -16 21 -17 78 -3 105 12 22 21
24 38 7z"/>
<path d="M1570 1890 l0 -260 930 0 930 0 0 260 c0 167 -4 260 -10 260 -6 0
-10 -92 -10 -255 l0 -255 -910 0 -910 0 0 255 c0 163 -4 255 -10 255 -6 0 -10
-93 -10 -260z"/>
<path d="M2284 1872 c-36 -25 -11 -85 34 -80 21 2 27 9 29 28 1 14 -1 18 -3 8
-7 -23 -29 -29 -51 -13 -25 19 -5 51 31 48 15 -1 24 2 21 8 -7 11 -45 12 -61
1z"/>
<path d="M2410 1835 c0 -44 0 -45 33 -44 23 1 26 3 10 6 -19 4 -23 11 -23 44
0 21 -4 39 -10 39 -5 0 -10 -20 -10 -45z"/>
<path d="M2530 1839 c-12 -23 -18 -44 -14 -47 4 -4 9 -1 11 6 6 15 45 16 61 0
16 -16 15 -6 -4 42 -9 22 -20 40 -25 40 -5 0 -18 -18 -29 -41z m40 -5 c0 -8
-7 -14 -15 -14 -17 0 -18 2 -9 24 7 18 24 12 24 -10z"/>
<path d="M2662 1835 c-1 -42 1 -46 9 -26 l9 24 25 -23 c27 -26 33 -17 10 14
-13 17 -13 22 2 38 9 10 12 18 6 18 -5 0 -18 -9 -29 -21 l-19 -21 -6 24 c-5
15 -7 7 -7 -27z"/>
</g>
</svg>
