<?xml version="1.0" standalone="no"?>
<!DOCTYPE svg PUBLIC "-//W3C//DTD SVG 20010904//EN"
 "http://www.w3.org/TR/2001/REC-SVG-20010904/DTD/svg10.dtd">
<svg version="1.0" xmlns="http://www.w3.org/2000/svg"
 width="500.000000pt" height="500.000000pt" viewBox="0 0 500.000000 500.000000"
 preserveAspectRatio="xMidYMid meet">

<g transform="translate(0.000000,500.000000) scale(0.100000,-0.100000)"
fill="#000000" stroke="none">
<path d="M2282 2949 c-56 -11 -61 -14 -83 -63 -21 -47 -26 -170 -8 -240 13
-52 72 -133 116 -159 53 -30 130 -33 191 -7 59 26 100 68 138 142 34 66 40
188 11 231 -53 82 -218 125 -365 96z"/>
<path d="M2996 2949 c-59 -14 -112 -48 -132 -84 -27 -51 -16 -197 22 -272 35
-70 75 -99 148 -108 95 -12 145 19 196 120 30 59 35 79 38 161 5 118 -6 150
-62 175 -45 20 -142 24 -210 8z"/>
<path d="M2112 2918 c-17 -17 -15 -48 3 -48 10 0 15 10 15 30 0 34 -1 35 -18
18z"/>
<path d="M3296 2923 c-12 -12 -6 -43 9 -43 8 0 15 9 15 19 0 21 -13 34 -24 24z"/>
<path d="M2025 2908 c-16 -6 -39 -15 -50 -19 -11 -5 -29 -10 -40 -12 -11 -1
-24 -5 -30 -9 -5 -3 -87 -31 -180 -62 -201 -66 -258 -98 -284 -159 -41 -95
-52 -205 -21 -200 13 2 15 -35 15 -290 0 -289 0 -292 24 -333 29 -52 84 -84
143 -84 64 0 107 18 130 54 l20 31 -5 -54 c-4 -46 -10 -59 -36 -83 -39 -35
-87 -37 -168 -7 l-57 22 -15 -23 c-9 -13 -26 -40 -39 -61 l-23 -38 38 -25 c58
-38 119 -49 245 -44 148 5 202 32 251 123 21 39 22 51 25 483 l3 442 -111 0
-110 0 0 -47 0 -48 -16 30 c-21 41 -52 63 -100 70 -53 9 -115 -9 -148 -41 -31
-31 -31 -30 -10 48 19 74 31 94 69 118 24 15 295 94 391 115 10 2 41 10 68 19
27 8 53 13 57 10 5 -2 3 9 -2 26 -6 17 -8 37 -5 45 3 8 4 15 3 14 -1 -1 -15
-6 -32 -11z m-290 -538 c19 -37 22 -394 3 -434 -16 -37 -48 -44 -70 -16 -16
20 -18 45 -18 239 0 229 2 241 47 241 15 0 28 -10 38 -30z"/>
<path d="M2670 2908 c0 -12 49 -100 50 -90 0 17 -29 80 -41 88 -5 3 -9 4 -9 2z"/>
<path d="M2801 2897 c-6 -8 -13 -29 -16 -48 -4 -29 -4 -30 4 -8 4 14 14 35 20
47 13 25 9 29 -8 9z"/>
<path d="M1990 2180 l0 -540 110 0 110 0 1 98 1 97 12 -50 c20 -79 43 -114 89
-136 80 -36 158 -16 199 50 l23 36 3 -47 3 -48 105 0 105 0 -1 398 c-1 247 2
406 9 422 7 17 10 -103 10 -397 l1 -423 110 0 110 0 1 203 1 202 66 -202 66
-203 113 0 c62 0 113 3 113 8 0 4 -38 121 -84 260 l-85 253 69 200 69 199 -36
0 c-28 0 -43 -8 -74 -40 -29 -29 -54 -44 -97 -56 l-59 -16 -30 -92 -31 -91 -1
97 -1 97 -35 17 c-60 28 -112 105 -136 198 -8 34 -16 46 -30 46 -12 0 -19 -7
-19 -19 0 -10 -11 -43 -24 -72 -13 -30 -27 -73 -31 -96 l-7 -42 -38 25 -39 26
-43 -35 c-81 -65 -201 -86 -285 -48 l-41 19 -16 -39 c-9 -22 -16 -64 -16 -94
l0 -55 105 0 105 0 0 36 c0 48 16 74 45 74 33 0 45 -27 45 -103 l0 -64 -92
-33 c-151 -52 -190 -86 -214 -184 -11 -44 -12 -14 -13 236 -1 270 -2 289 -21
321 -12 19 -29 59 -40 88 l-18 54 -71 3 -71 3 0 -541z m540 -199 c0 -123 -3
-152 -16 -165 -8 -9 -22 -16 -29 -16 -7 0 -21 7 -29 16 -21 20 -22 216 -2 252
10 18 61 62 74 62 1 0 2 -67 2 -149z"/>
</g>
</svg>
