<svg xmlns="http://www.w3.org/2000/svg" viewBox="0 0 166.96 112.97"><defs><style>.cls-1{fill:#f9af00;}.cls-2{fill:#fedd59;}.cls-3{fill:#cb5a28;}.cls-4{fill:#e2e2e2;}.cls-5{fill:#e2e0df;}.cls-6{fill:#ca5c29;}.cls-7{fill:#b75930;}.cls-8{fill:#bf5a2d;}.cls-9{fill:#fdfdfd;}.cls-10{fill:#a44922;}.cls-11{fill:#fbfafa;}.cls-12{fill:#99471e;}.cls-13{fill:#fdfcfb;}.cls-14{fill:#f5f4f3;}.cls-15{fill:#8a3d1c;}.cls-16{fill:#3f3f3f;}.cls-17{fill:#4b2012;}.cls-18{fill:#cd5d29;}.cls-19{fill:#89530c;}.cls-20{fill:#e79d45;}.cls-21{fill:#582716;}.cls-22{fill:#7f3c21;}</style></defs><title>Fichier 1</title><g id="Calque_2" data-name="Calque 2"><g id="Calque_1-2" data-name="Calque 1"><path d="M43.35,95.51c-2,12-7.2,16.79-19.48,17.33-7,.31-14,.38-20.23-3.69-2-1.33-2.4-2.48-.89-4.29a2.46,2.46,0,0,0,.19-.32c1.23-2,2-4.72,3.83-5.84s3.86,1.58,6.05,1.88a5.93,5.93,0,0,1,.73.16c9.16,2.38,13.25-.86,13.05-10.88-2.18,3.22-4.69,5.3-8.38,5.64-9.15.86-15.14-4.15-15.43-14-.38-13.06-1-26.16.65-39.2a8.51,8.51,0,0,1,2.25-6.07c3.64-3,7.76-4.48,12.5-3.67,3.57.61,6.56,2.15,8.31,6.62-.11-.42.29-1.37-.06-1-.15.15-.22.07-.3-.22-.6-2.19-.41-4.32,2.18-4.64a49.34,49.34,0,0,1,14.15.1,2,2,0,0,1,1.38,1.17,13.26,13.26,0,0,1,.43,4.81q0,25.39,0,50.78C44.26,92,44.69,93.89,43.35,95.51Z"/><path d="M139.16,34l5.1.25c-3.12,9-6.1,17.87-9.26,26.65a9,9,0,0,0,0,6.43c3.78,10.94,7.43,21.93,11.14,32.9a3.91,3.91,0,0,1,.39,2.77c-5,0-10.1-.12-15.19,0-2.05.07-2.12-1.33-2.51-2.54q-4.16-13-8.24-26a1.58,1.58,0,0,0-1.19-1.19c0,6,.08,12,0,18-.08,3.83,1.67,8.94-.74,11.11-2.1,1.89-7.13.52-10.87.57-1.49,0-3,0-4.49,0-1.32-1.28-1.14-3-1.14-4.56q0-28.39,0-56.78c0-4.84.32-9.64,2.55-14.08a2.64,2.64,0,0,1,2-1.26c1.25.34,1.68,1.41,2,2.47a19.77,19.77,0,0,0,10.17,11.81,3,3,0,0,1,1.32,1.27,28.12,28.12,0,0,1,0,11.21,45,45,0,0,1,3.45-10.62,4,4,0,0,1,2.63-1.17,17.55,17.55,0,0,0,10.42-5.82C137.39,34.69,138,33.74,139.16,34Z"/><path d="M101.66,103c-4.1,0-8.22-.22-12.3.09-3.14.24-4.33-.73-3.77-3.83a12.52,12.52,0,0,0,0-2.12c-1.12-.37-1.06.51-1.32,1a10.36,10.36,0,0,1-10.86,5.59c-4.86-.52-8.47-2.71-10.05-7.56-.53-1.65-1-3.33-1.45-5-1.06-1.07-1-2.46-1-3.81.1-2,.07-3.92,0-5.88q-.06-2.53.09-5.07a32.82,32.82,0,0,1,.77-3.54c1.48-5,4.83-8.26,9.52-10.29,3.07-1.33,6.26-2.36,9.43-3.46,3.36-1.17,5-8.38,2.56-11a1.76,1.76,0,0,0-2-.6c-1,.4-1.36,1.35-1.63,2.33-.46,1.72.26,3.85-1.73,5-4.32.8-8.66.36-13,.3-2.09,0-3.1-1.3-3.19-3.35-.18-4,.08-7.94,2.45-11.41.82-.94,1.76-.61,2.71-.23,8.63,3.5,16.49,2.5,23.42-4a4.5,4.5,0,0,1,1.92-1.12c2.77,0,4.58,1.66,6.28,3.55a38.9,38.9,0,0,0,1.86,3.49,9.54,9.54,0,0,1,1.63,2.7,15.2,15.2,0,0,1,.44,4.45q0,24.69,0,49.38C102.44,100.11,102.77,101.67,101.66,103Z"/><path d="M61.93,75.86c0,1.81,0,3.62,0,5.44a9.78,9.78,0,0,0,0,5.89l0,3.91c-1.27,2.92-.48,6-.52,9,0,2.16-.37,3.06-2.81,2.94-4.58-.23-9.18-.09-13.77-.1A59.55,59.55,0,0,1,44,91.09c-.1-17.49-.06-35,0-52.46,0-4-.54-8-.33-12,.07-1.48-.15-3,.6-4.4,2.92-2.37,6.27-1.18,9.49-1.16a3.22,3.22,0,0,1,2.52,2c1.61,4.82,4.58,9.07,5.9,14-.48,12.57.8,25.15-.5,37.71A2.1,2.1,0,0,0,61.93,75.86Z"/><path class="cls-1" d="M61.4,36.4a62.18,62.18,0,0,1-6.54-14.69c-1.26-.05-1.22-1.12-1.3-1.88a7.37,7.37,0,0,0-3.86-5.95c-1-2-1.7-4-1-6.29,2.73-3.3,6.71-4.18,10.52-5.24,11.42-3.19,23-4,33.13,3.09,6,4.15,11.23,3.22,16.89.75C116.37,3.09,123.43,0,131.43.24a35,35,0,0,1,11.68,2.3c4.13,1.57,5.92,7.26,3.19,10.81a11.21,11.21,0,0,0-2.41,5.76A42.46,42.46,0,0,1,139.16,34c-3.69,4.94-8.45,8-14.74,8.39-1.86,1.2-3.45.48-5-.73-7.2-2.53-10.29-8.49-12.56-15.11-1.26-1.23-1.41-2.94-2-4.45-.64-1.81-.45-4.74-2.65-4.85-2.69-.14-2.3,3-2.95,4.84-1.23,3.5-2.19,7.1-4.05,10.35-.67,1.18-1.32,2.4-2.73,2.9-4.81,5.34-10.63,8.23-18,7.85a18.33,18.33,0,0,1-9.4-3C62.75,40,62.13,38.16,61.4,36.4Z"/><path class="cls-2" d="M167,97.35c0,5.73-3.86,9.71-9.48,9.71a9.6,9.6,0,0,1-9.84-9.56,9.33,9.33,0,0,1,9.65-9.6C163,87.88,166.94,91.7,167,97.35Z"/><path class="cls-3" d="M5.82,37c-.94,1.67-.9,3.8-2.38,5.23C1.52,43.48.52,42.9.15,40.7c-1.1-6.62,4-17.24,10.15-20.08,9.14-4.19,18.85-6.85,28.46-9.72.68.91.17,1.74-.15,2.59-.59,1.15-.38,2.59-1.3,3.62C33.08,19.7,28.12,20,23.54,21.53c-2.7.88-5.49,1.57-8.22,2.39-4.06,1.23-6.67,3.69-7.46,7.94A15.06,15.06,0,0,1,5.82,37Z"/><path class="cls-4" d="M44.71,22q.06,40.47.11,80.94c-2.09-2.16.28-5.2-1.47-7.42q0-28.5,0-57c0-1.49-.15-3-.23-4.45A42.26,42.26,0,0,1,43,24.79C43,23.64,43,22.2,44.71,22Z"/><path class="cls-5" d="M101.66,103c0-18.23.07-36.47,0-54.7a22.18,22.18,0,0,0-1-4.72,4.73,4.73,0,0,1,1.59-2.86.68.68,0,0,1,.86.08q.06,27.9.11,55.81c0,2.12.06,4.24.09,6.36Z"/><path class="cls-6" d="M48.71,7.59a15.9,15.9,0,0,1,1.31,6,9.83,9.83,0,0,1-8.09,2c-1.5-2.76-.17-4.62,2-6.2C45.33,8.27,47.1,8.15,48.71,7.59Z"/><path class="cls-7" d="M43.93,9.4a14.75,14.75,0,0,0-2.09,6.07c-.28,1-.94,1-1.75.66a2.63,2.63,0,0,1-.6-1.54,12.46,12.46,0,0,1,.82-3.72A6.81,6.81,0,0,1,41,10C41.8,9.08,42.9,9.41,43.93,9.4Z"/><path class="cls-8" d="M40.21,14.43l0,1.41c-.63.95-1.36,1.55-2.51.75-.07-1.19-.41-2.41.24-3.56.27-.71.53-1.42.79-2.13.49-.87,1.43-.68,2.19-.91,0,.22,0,.44,0,.66C40.74,11.91,39.39,12.94,40.21,14.43Z"/><path class="cls-9" d="M26.68,64.74c0,3.87.07,7.74,0,11.61a18.8,18.8,0,0,1-.71,4.4,3.13,3.13,0,0,1-3.35,2.44,3.2,3.2,0,0,1-3.09-2.78,14.92,14.92,0,0,1-.38-3.33c0-8.61-.07-17.23,0-25.84,0-2.34-.06-5.2,3.33-5.23s4,2.79,4.14,5.26c.26,4.48.07,9,.07,13.47Z"/><path class="cls-10" d="M103.1,40.75h-.32l-.31.06c-1.06.3-1.13,2.7-3,1.41-.47-.92-.93-1.84-1.39-2.76-.8-4.56,1.42-8.35,3.12-12.28a4.2,4.2,0,0,1,4.35.11C103.76,31.58,103.39,36.16,103.1,40.75Z"/><path class="cls-11" d="M119.46,41.63l5,.73q-2.06,6.48-4.13,13l-.83-.05Z"/><path class="cls-12" d="M105.6,27.28c-1.22.14-2.44.49-3.64-.05-1-1.33.41-2.06.75-3.06a18,18,0,0,1,2-2.22,2.43,2.43,0,0,1,.87-.46,10.67,10.67,0,0,1,1.36,5Z"/><path class="cls-9" d="M78.45,54.18a43,43,0,0,1,.24-5.57,3,3,0,0,1,2.69-2.71,3.08,3.08,0,0,1,3.41,2.31c1.08,3.13.5,6.39.47,9.6,0,1.3-1.46,1.17-2.29,1.48-3.13,1.17-6.31,2.2-9.48,3.29-5.21,1.8-9,5.07-10.92,10.37a.84.84,0,0,1-.93-.89c-.07-5.2,0-10.41,0-15.61,0-1.87,1.14-1.85,2.46-1.84,3.6,0,7.19,0,10.78,0C76.05,54.58,77.33,55,78.45,54.18Z"/><path class="cls-9" d="M85.21,66.49c0,7.09.06,13.77,0,20.45,0,2-.82,3.83-3.16,3.93-2.53.11-3.46-1.69-3.62-3.87a70.78,70.78,0,0,1,.06-13.42C78.87,69.79,81.57,68,85.21,66.49Z"/><path class="cls-13" d="M98.13,39.45a15.55,15.55,0,0,0-5.62-4.14,53.93,53.93,0,0,0,6.37-15.44c.44-1.65.41-4.11,3-4.13s2.63,2.3,3.37,3.93a7.15,7.15,0,0,1,.31,1.83l-.22.11.05.24c-.78.74-1.78,1.3-2.09,2.46L102,27.23"/><path class="cls-14" d="M78.45,54.18C74.83,56,71,54.78,67.24,55,62,55.2,61.87,55,62,60.11c.14,4.28-.71,8.61.54,12.84l-.64,2.91c-.82-.27-.62-1-.61-1.53q0-19,.08-37.93l3.72,3.78a38.13,38.13,0,0,0-1.57,3.75"/><path class="cls-15" d="M99.52,42.21c1.49.59,1.3-2.34,3-1.41.16,1.41-1.25,1.79-1.82,2.73C100.05,43.28,99.43,43.05,99.52,42.21Z"/><path class="cls-16" d="M62,87.19a5.58,5.58,0,0,1,0-5.89C62,83.26,62,85.23,62,87.19Z"/><path class="cls-17" d="M58.78,19.26a27.29,27.29,0,0,1,0-3.73c.86-5.93,2-10.45,9.88-11.17,7.7-.69,14.86-.14,21.54,4a10.06,10.06,0,0,1,5.16,7.79c.84,8.36-1.61,15.68-8.07,21.07-9.67,8.06-22.11,4.31-26.84-7.75A27.24,27.24,0,0,1,58.78,19.26Z"/><path class="cls-17" d="M140.77,17.75c.44,5.93-1.92,11.4-5.28,16.71-5.84,9.24-19.79,5.39-23-1.19-3.12-6.38-3.73-13.12-3.07-20,.3-3.21,2.82-5.22,5.6-6.57a28.34,28.34,0,0,1,18.22-2.3c5.36,1,7.31,3.66,7.54,9.13C140.82,14.78,140.77,16,140.77,17.75Z"/><path class="cls-18" d="M55.17,10.67c-1.33.41-2.52.58-2.19-1.47.21-1.28-.44-3.47,2.27-2.3A4.3,4.3,0,0,1,55.17,10.67Z"/><path class="cls-18" d="M142.75,10.32A2.46,2.46,0,0,1,141.54,8a1.37,1.37,0,0,1,1.38-1.42c1.28,0,1.47,1,1.49,2.09S143.65,10,142.75,10.32Z"/><path class="cls-19" d="M99.27,13.63c-1.66-.56-1.38-1.63-1.74-2.76C99.08,11.42,98.7,12.54,99.27,13.63Z"/><path class="cls-20" d="M55.17,10.67c0-1.26.06-2.51.08-3.76C56.24,8.18,56.43,9.44,55.17,10.67Z"/><path class="cls-21" d="M37.92,16.53l-.3.16-.33-.06c0-1.23-.5-2.58.68-3.6C38,14.2,37.94,15.37,37.92,16.53Z"/><path class="cls-22" d="M40.21,14.43c-1.57-1.64,0-2.64.78-3.78Z"/><path d="M103.28,24.31c-.36-1.73-.2-3,2.09-2.46C105.32,23.21,104.24,23.71,103.28,24.31Z"/></g></g></svg>