<?xml version="1.0" standalone="no"?>
<!DOCTYPE svg PUBLIC "-//W3C//DTD SVG 20010904//EN"
 "http://www.w3.org/TR/2001/REC-SVG-20010904/DTD/svg10.dtd">
<svg version="1.0" xmlns="http://www.w3.org/2000/svg"
 width="500.000000pt" height="500.000000pt" viewBox="0 0 500.000000 500.000000"
 preserveAspectRatio="xMidYMid meet">

<g transform="translate(0.000000,500.000000) scale(0.100000,-0.100000)"
fill="#000000" stroke="none">
<path d="M2459 2989 c-73 -47 -304 -277 -364 -362 -33 -47 -54 -64 -118 -98
-43 -22 -80 -39 -82 -37 -2 2 10 25 27 51 17 26 28 50 25 53 -3 3 -33 -13 -67
-36 -92 -63 -162 -92 -211 -88 -63 5 -69 23 -31 100 58 118 202 238 305 255
68 11 89 -39 41 -97 -15 -17 -24 -33 -21 -36 11 -11 57 64 57 94 0 59 -71 67
-167 21 -69 -32 -197 -163 -229 -233 -30 -67 -28 -96 8 -114 40 -19 114 1 208
58 44 26 80 46 80 43 0 -2 -14 -24 -31 -49 -21 -31 -48 -53 -92 -75 -99 -50
-199 -110 -224 -135 -46 -47 -19 -73 50 -49 36 13 227 15 1355 15 868 0 1312
3 1312 10 0 7 -439 10 -1296 10 l-1297 0 67 61 c36 33 66 65 66 71 0 6 -34
-22 -75 -61 -65 -61 -80 -71 -111 -71 -28 0 -35 -3 -30 -15 4 -11 -2 -15 -24
-15 -42 0 -37 14 18 54 56 41 222 131 222 120 0 -4 10 2 23 13 25 23 167 97
173 90 3 -2 0 -16 -6 -31 -30 -80 3 -91 115 -38 66 32 85 37 89 26 9 -23 31
-16 100 31 37 25 68 45 70 45 2 0 -1 -13 -7 -29 -23 -62 14 -77 105 -40 29 12
61 23 70 23 10 1 28 13 41 27 13 13 55 46 92 74 144 104 355 330 355 381 0 8
-10 14 -22 14 -27 0 -190 -164 -333 -335 -87 -104 -109 -124 -165 -152 -123
-62 -168 -51 -121 29 16 28 18 38 8 38 -8 0 -16 -3 -20 -6 -3 -3 -25 -7 -49
-8 -32 -2 -61 -14 -116 -50 -121 -79 -212 -110 -212 -71 0 41 38 89 111 140
227 159 448 376 424 415 -11 17 -30 11 -96 -31z m81 11 c0 -38 -183 -212 -369
-352 -42 -31 -78 -55 -80 -53 -18 19 327 367 400 403 53 26 49 26 49 2z m500
1 c0 -37 -246 -294 -356 -371 l-49 -35 65 80 c36 44 121 137 190 207 113 116
150 145 150 119z m-670 -426 c0 -10 -106 -75 -123 -75 -24 0 -14 15 35 51 35
25 88 40 88 24z"/>
<path d="M2685 2588 c-34 -19 -88 -69 -138 -127 -27 -31 -53 -55 -58 -53 -12
3 -35 -46 -26 -55 4 -3 8 -4 10 -2 1 2 36 44 77 93 46 56 76 84 78 75 9 -28
46 -59 71 -59 31 1 121 37 186 74 75 45 46 39 -45 -8 -98 -50 -140 -62 -169
-46 -30 15 -26 37 8 45 35 7 85 51 76 65 -8 13 -45 12 -70 -2z m53 -10 c-5
-17 -73 -50 -93 -46 -11 2 -2 12 26 31 46 29 73 35 67 15z"/>
<path d="M2525 2470 c-21 -28 -35 -53 -33 -55 2 -3 21 18 42 46 21 28 36 53
33 55 -3 3 -21 -18 -42 -46z"/>
<path d="M3101 2038 c1 -29 4 -43 6 -31 2 13 13 24 26 26 l22 4 -22 2 c-16 1
-23 7 -23 20 0 12 8 21 23 24 19 4 18 4 -5 6 -27 1 -28 0 -27 -51z"/>
<path d="M3537 2083 c-4 -3 -6 -27 -6 -52 1 -25 4 -36 6 -23 2 12 7 22 10 22
2 0 14 -10 24 -22 20 -23 20 -23 10 -1 -7 14 -8 24 -1 28 12 8 13 45 1 45 -5
0 -7 -9 -4 -20 4 -15 0 -20 -16 -20 -23 0 -28 19 -9 38 7 7 8 12 2 12 -6 0
-14 -3 -17 -7z"/>
<path d="M3678 2082 c-22 -4 -35 -49 -21 -71 6 -9 23 -16 38 -16 34 0 50 23
42 57 -7 26 -28 37 -59 30z m50 -50 c-2 -23 -8 -27 -33 -27 -24 0 -31 5 -33
24 -5 32 23 54 50 40 13 -7 18 -19 16 -37z"/>
<path d="M3991 2071 c13 -11 26 -17 29 -14 6 6 -30 33 -43 33 -5 0 1 -9 14
-19z"/>
<path d="M4087 2083 c-4 -3 -7 -26 -7 -50 0 -42 1 -43 33 -42 30 2 30 2 5 6
-16 2 -28 10 -28 18 0 8 12 16 28 18 l27 4 -27 2 c-34 1 -38 28 -5 41 21 8 21
9 1 9 -11 1 -24 -2 -27 -6z"/>
<path d="M3213 2035 c0 -27 2 -38 4 -22 2 15 2 37 0 50 -2 12 -4 0 -4 -28z"/>
<path d="M3282 2038 c-2 -44 0 -48 21 -47 16 1 17 3 5 6 -12 3 -18 17 -21 46
l-4 42 -1 -47z"/>
<path d="M3802 2050 c-2 -45 10 -63 39 -58 21 3 24 9 25 48 l2 45 -7 -40 c-5
-31 -10 -40 -26 -40 -16 0 -21 9 -26 40 l-6 40 -1 -35z"/>
<path d="M3934 2053 c-8 -32 6 -57 35 -61 23 -4 51 13 51 31 0 6 -6 3 -13 -7
-19 -26 -61 -18 -65 12 -2 13 2 30 8 38 9 10 9 14 1 14 -6 0 -14 -12 -17 -27z"/>
</g>
</svg>
